<?xml version="1.0" encoding="iso-8859-1"?>
<!-- Uploaded to: SVG Repo, www.svgrepo.com, Generator: SVG Repo Mixer Tools -->
<svg version="1.1" id="Layer_1" xmlns="http://www.w3.org/2000/svg" xmlns:xlink="http://www.w3.org/1999/xlink" 
	 viewBox="0 0 512 512" xml:space="preserve">
<rect x="123.647" style="fill:#B92727;" width="264.683" height="23.554"/>
<rect x="55.955" y="159.998" style="fill:#E9A65E;" width="400.087" height="313.306"/>
<rect x="55.955" y="396.89" style="fill:#D97A2B;" width="400.087" height="69.182"/>
<path style="fill:#936B49;" d="M475.222,505.025c0,3.853-3.123,6.975-6.975,6.975H43.754c-3.853,0-6.975-3.123-6.975-6.975v-31.98
	c0-3.853,3.123-6.975,6.975-6.975h424.492c3.853,0,6.975,3.123,6.975,6.975V505.025z"/>
<rect x="295.539" y="222.023" style="fill:#6B4F37;" width="137.204" height="244.056"/>
<g>
	<rect x="313.878" y="244.527" style="fill:#826041;" width="100.537" height="91.525"/>
	<rect x="313.878" y="358.362" style="fill:#826041;" width="100.537" height="91.525"/>
</g>
<circle style="fill:#423223;" cx="393.424" cy="318.05" r="9.502"/>
<rect x="79.24" y="222.023" style="fill:#6B4F37;" width="198.035" height="151.003"/>
<rect x="88.059" y="228.268" style="fill:#C7D7DC;" width="180.392" height="138.499"/>
<g style="opacity:0.2;">
	<polygon style="fill:#FFFFFF;" points="157.477,366.781 125.696,366.781 185.615,228.268 217.396,228.268 	"/>
	<polygon style="fill:#FFFFFF;" points="199.041,366.781 176.301,366.781 236.216,228.268 258.959,228.268 	"/>
	<polygon style="fill:#FFFFFF;" points="108.929,366.781 97.555,366.781 157.474,228.268 168.844,228.268 	"/>
</g>
<g>
	<path style="fill:#CA3F3F;" d="M176.462,18.167h-52.789L38.656,159.998c0,24.772,19.419,44.854,43.374,44.854
		s43.374-20.082,43.374-44.854h-0.04L176.462,18.167z"/>
	<path style="fill:#CA3F3F;" d="M388.323,18.167h-52.789l51.103,141.831H386.6c0,24.772,19.419,44.854,43.374,44.854
		s43.374-20.082,43.374-44.854L388.323,18.167z"/>
	<path style="fill:#CA3F3F;" d="M282.719,18.167h-26.721h-26.717l-17.168,141.831h0.511c0,24.772,19.419,44.854,43.374,44.854
		s43.374-20.082,43.374-44.854h0.511L282.719,18.167z"/>
</g>
<g>
	<path style="fill:#EFE9DE;" d="M229.281,18.167h-52.819l-51.103,141.831h0.279c0,24.772,19.419,44.854,43.374,44.854
		s43.374-20.082,43.374-44.854h-0.273L229.281,18.167z"/>
	<path style="fill:#EFE9DE;" d="M335.534,18.167h-52.815l17.168,141.831h-0.273c0,24.772,19.419,44.854,43.374,44.854
		c23.955,0,43.374-20.082,43.374-44.854h0.279L335.534,18.167z"/>
</g>
<path style="fill:#B92727;" d="M82.026,204.852c23.955,0,43.374-20.082,43.374-44.854H38.653
	C38.656,184.773,58.075,204.852,82.026,204.852z"/>
<path style="fill:#DAD5CA;" d="M169.016,204.852c23.955,0,43.374-20.082,43.374-44.854h-86.747
	C125.642,184.773,145.061,204.852,169.016,204.852z"/>
<path style="fill:#B92727;" d="M255.998,204.852c23.955,0,43.374-20.082,43.374-44.854h-86.747
	C212.625,184.773,232.044,204.852,255.998,204.852z"/>
<path style="fill:#DAD5CA;" d="M342.984,204.852c23.955,0,43.374-20.082,43.374-44.854h-86.744
	C299.614,184.773,319.033,204.852,342.984,204.852z"/>
<path style="fill:#B92727;" d="M429.97,204.852c23.955,0,43.374-20.082,43.374-44.854H386.6
	C386.6,184.773,406.016,204.852,429.97,204.852z"/>
</svg>